<svg data-v-0dd9719b="" version="1.0" xmlns="http://www.w3.org/2000/svg" xmlns:xlink="http://www.w3.org/1999/xlink" width="100%" height="100%" viewBox="0 0 340.000000 250.000000" preserveAspectRatio="xMidYMid meet" color-interpolation-filters="sRGB" style="margin: auto;"> <rect data-v-0dd9719b="" x="0" y="0" width="100%" height="100%" fill="#fff" fill-opacity="1" class="background"></rect> <rect data-v-0dd9719b="" x="0" y="0" width="100%" height="100%" fill="url(#watermark)" fill-opacity="1" class="watermarklayer"></rect> <g data-v-0dd9719b="" fill="#333" class="icon-text-wrapper icon-svg-group iconsvg" transform="translate(48.528465270996094,95.00389671437472)"><g class="iconsvg-imagesvg" transform="translate(0,0)"><g><rect fill="#333" fill-opacity="0" stroke-width="2" x="0" y="0" width="60" height="59.9922010138682" class="image-rect"></rect> <svg x="0" y="0" width="60" height="59.9922010138682" filtersec="colorsb5204397366" class="image-svg-svg primary" style="overflow: visible;"><svg xmlns="http://www.w3.org/2000/svg" viewBox="-0.025064129382371902 0.02431926503777504 99.97372436523438 99.96115112304688"><path d="M92.11 7.56a14.27 14.27 0 0 0-24.36 10.7A17.91 17.91 0 0 1 49.27 35.5a14.42 14.42 0 0 0-13.77 15A17.89 17.89 0 0 1 17 67.72a14.29 14.29 0 1 0 14.9 14.93 17.87 17.87 0 0 1 17.7-18.48h.8a14.23 14.23 0 0 0 7-2.2 13.93 13.93 0 0 0 2.6-2.09 14.23 14.23 0 0 0 4.15-9.45A17.87 17.87 0 0 1 81.86 32h.5a2.8 2.8 0 0 0 .29 0 14.27 14.27 0 0 0 9.46-24.44z" fill="#004e9a"></path><path d="M75.59 43.5a14.22 14.22 0 0 0-4.15 10.7A17.93 17.93 0 0 1 53 71.44a14.28 14.28 0 1 0 14.91 14.9 17.86 17.86 0 0 1 17.65-18.46h.79A14.28 14.28 0 1 0 75.59 43.5zM36.28 4.19a14.22 14.22 0 0 0-4.15 10.7 17.91 17.91 0 0 1-18.48 17.23 14.29 14.29 0 1 0 14.89 14.93 17.87 17.87 0 0 1 17.7-18.48H47A14.28 14.28 0 1 0 36.28 4.19z" fill="#27b4d4"></path><path d="M20.9 20.91a9.91 9.91 0 1 1 0-14 9.9 9.9 0 0 1 0 14zM93.21 93.21a9.91 9.91 0 1 1 0-14 9.9 9.9 0 0 1 0 14z" fill="#004e9a"></path></svg></svg> <!----></g></g> <g transform="translate(67,6.099851608276367)"><g data-gra="path-name" fill-rule="" class="tp-name iconsvg-namesvg" transform="translate(0,0)"><g transform="scale(1)"><g><path d="M33.34 1.84Q32.65 2.81 31.25 2.38L31.25 2.38Q22.1-0.83 18.22-10.66L18.22-10.66Q15.73-2.16 5.22 2.09L5.22 2.09Q3.31 2.81 2.66 1.84L2.66 1.84Q2.2 1.15 2.84 0.47L2.84 0.47Q3.35-0.11 4.39-0.5L4.39-0.5Q9.97-2.92 12.89-6.52L12.89-6.52Q15.26-9.47 16.02-13.5L16.02-13.5 3.82-13.5Q2.45-13.5 2.45-14.87 2.45-16.24 3.82-16.24L3.82-16.24 16.27-16.24Q16.34-16.92 16.34-18.29L16.34-18.29 16.34-24.62 3.78-24.62Q2.41-24.62 2.41-25.99 2.41-27.36 3.78-27.36L3.78-27.36 32.18-27.36Q33.55-27.36 33.55-25.99 33.55-24.62 32.18-24.62L32.18-24.62 19.15-24.62 19.15-18.25Q19.15-16.92 19.12-16.24L19.12-16.24 32.15-16.24Q33.52-16.24 33.52-14.87 33.52-13.5 32.15-13.5L32.15-13.5 19.91-13.5Q23.18-3.56 32.18-0.36L32.18-0.36Q34.42 0.29 33.34 1.84L33.34 1.84ZM57.53 2.74L57.53 2.74Q56.2 2.74 56.2 1.4L56.2 1.4 56.2-2.77 47.27-2.77Q46.12-2.77 46.12-3.92 46.12-5.08 47.27-5.08L47.27-5.08 56.2-5.08 56.2-8.21 48.96-8.21Q47.84-8.21 47.84-9.32 47.84-10.44 48.96-10.44L48.96-10.44 56.2-10.44 56.2-13.28 49.5-13.28Q48.42-13.28 48.42-14.36 48.42-15.44 49.5-15.44L49.5-15.44 56.2-15.44 56.2-18.65 47.63-18.65Q46.48-18.65 46.48-19.84L46.48-19.84Q46.48-20.99 47.63-20.99L47.63-20.99 56.2-20.99 56.2-24.16 49.68-24.16Q48.6-24.16 48.6-25.24 48.6-26.32 49.68-26.32L49.68-26.32 56.2-26.32 56.2-28.76Q56.2-30.1 57.53-30.1L57.53-30.1Q58.86-30.1 58.86-28.76L58.86-28.76 58.86-26.32 65.27-26.32Q66.2-26.32 66.78-25.74 67.36-25.16 67.36-24.23L67.36-24.23 67.36-20.99 69.01-20.99Q70.16-20.99 70.16-19.84L70.16-19.84Q70.16-18.65 69.01-18.65L69.01-18.65 67.36-18.65 67.36-15.37Q67.36-14.44 66.78-13.86 66.2-13.28 65.27-13.28L65.27-13.28 58.86-13.28 58.86-10.44 67.03-10.44Q68.15-10.44 68.15-9.32 68.15-8.21 67.03-8.21L67.03-8.21 58.86-8.21 58.86-5.08 68.69-5.08Q69.84-5.08 69.84-3.92 69.84-2.77 68.69-2.77L68.69-2.77 58.86-2.77 58.86 1.4Q58.86 2.74 57.53 2.74ZM41.65 0.65Q41 1.94 39.74 1.04L39.74 1.04Q39.17 0.61 39.02 0.22 38.88-0.18 39.2-0.76L39.2-0.76Q40.54-3.28 41.36-4.97L41.36-4.97Q42.62-7.52 43.56-9.72L43.56-9.72Q44.17-11.12 45.4-10.12L45.4-10.12Q46.22-9.4 45.83-8.5L45.83-8.5Q43.7-3.46 41.65 0.65L41.65 0.65ZM44.24-14.9Q43.42-13.82 42.52-14.58L42.52-14.58Q42.34-14.72 42.01-15.01L42.01-15.01Q41.18-15.66 40.75-15.98L40.75-15.98Q39.67-16.81 38.59-17.6L38.59-17.6Q37.69-18.25 38.45-19.26L38.45-19.26Q39.17-20.16 40.07-19.51L40.07-19.51Q42.59-17.78 44.21-16.56L44.21-16.56Q44.71-16.16 44.68-15.8L44.68-15.8Q44.68-15.44 44.24-14.9L44.24-14.9ZM58.86-18.65L58.86-15.44 64.12-15.44Q64.87-15.44 64.87-16.2L64.87-16.2 64.87-18.65 58.86-18.65ZM58.86-24.16L58.86-20.99 64.87-20.99 64.87-23.4Q64.87-24.16 64.12-24.16L64.12-24.16 58.86-24.16ZM45.56-23.47Q45.14-23.4 44.6-23.83L44.6-23.83Q44.24-24.16 43.42-24.84L43.42-24.84Q43.06-25.13 42.88-25.27L42.88-25.27Q42.44-25.6 41.62-26.28L41.62-26.28Q41-26.75 40.72-26.96L40.72-26.96Q39.67-27.68 40.61-28.66L40.61-28.66Q41.36-29.48 42.23-28.91L42.23-28.91Q44.39-27.4 46.4-25.78L46.4-25.78Q46.87-25.38 46.87-25 46.87-24.62 46.44-24.08L46.44-24.08Q45.97-23.54 45.56-23.47ZM75.2 2.23Q74.52 2.3 74.34 1.4L74.34 1.4Q74.2 0.43 74.99 0.36L74.99 0.36Q76.1 0.25 78.77 0L78.77 0Q80.24-0.14 81.04-0.22L81.04-0.22 81.04-4.43 75.89-4.43Q75.02-4.43 75.02-5.29 75.02-6.16 75.89-6.16L75.89-6.16 81.04-6.16 81.04-8.03 78.55-8.03Q77.54-8.03 77.54-9.04L77.54-9.04 77.54-9.14Q77.04-8.86 75.96-8.28L75.96-8.28Q75.17-7.85 74.56-8.42L74.56-8.42Q73.69-9.29 75.13-9.97L75.13-9.97Q78.37-11.66 80.42-13.75L80.42-13.75Q81.11-14.51 82.33-14.51L82.33-14.51 83.16-14.51Q86.58-12.6 89.1-10.55L89.1-10.55Q89.32-10.33 89.32-10.03 89.32-9.72 88.99-9.47L88.99-9.47 88.92-9.4Q93.17-11.16 95.72-13.9L95.72-13.9Q96.3-14.54 97.31-14.54L97.31-14.54 97.42-14.54Q98.28-14.54 98.96-13.93L98.96-13.93Q101.59-11.63 105.3-10.01L105.3-10.01Q106.56-9.5 105.84-8.46L105.84-8.46Q105.3-7.67 104.36-8.06L104.36-8.06Q103.14-8.68 102.53-9L102.53-9 102.53-8.39Q102.53-8.03 102.17-8.03L102.17-8.03 98.42-8.03 98.42-6.05 104.51-6.05Q105.37-6.05 105.37-5.18 105.37-4.32 104.51-4.32L104.51-4.32 98.42-4.32 98.42-0.14 105.05-0.14Q105.98-0.14 105.98 0.79 105.98 1.73 105.05 1.73L105.05 1.73 90.25 1.73Q89.32 1.73 89.32 0.79 89.32-0.14 90.25-0.14L90.25-0.14 96.23-0.14 96.23-4.32 90.79-4.32Q89.93-4.32 89.93-5.18 89.93-6.05 90.79-6.05L90.79-6.05 96.23-6.05 96.23-8.03 93.17-8.03Q92.41-8.03 92.41-8.78L92.41-8.78 92.41-8.89Q91.48-8.32 90.97-8.06L90.97-8.06Q90.4-7.81 89.86-7.97 89.32-8.14 88.99-8.68L88.99-8.68Q88.92-8.78 88.74-9L88.74-9Q88.67-9.11 88.63-9.14L88.63-9.14 88.27-8.82Q88.09-8.64 87.88-8.82L87.88-8.82 87.8-8.89Q87.26-9.36 86.94-9.61L86.94-9.61 86.94-8.71Q86.94-8.03 86.26-8.03L86.26-8.03 83.05-8.03 83.05-6.16 87.98-6.16Q88.85-6.16 88.85-5.29 88.85-4.43 87.98-4.43L87.98-4.43 83.05-4.43 83.05-0.43 86.18-0.76 85.32-1.04Q84.71-1.22 85-1.76L85-1.76Q85.07-1.91 85.21-2.23L85.21-2.23Q85.61-3.1 85.75-3.53L85.75-3.53Q86.08-4.32 86.87-4.07L86.87-4.07Q87.84-3.78 87.34-2.81L87.34-2.81Q86.69-1.48 86.22-0.76L86.22-0.76 87.91-0.94Q88.85-1.04 88.85-0.11L88.85-0.11Q88.85 0.72 87.98 0.83L87.98 0.83Q86.83 0.97 84.53 1.22L84.53 1.22Q77.83 1.98 75.2 2.23L75.2 2.23ZM93.67-0.47Q92.74-0.14 92.41-1.08L92.41-1.08Q92.34-1.3 92.12-1.8L92.12-1.8Q91.98-2.23 91.73-2.7L91.73-2.7Q91.26-3.53 92.27-3.82L92.27-3.82Q92.92-4.03 93.31-3.42L93.31-3.42Q93.85-2.56 94.25-1.55L94.25-1.55Q94.54-0.79 93.67-0.47L93.67-0.47ZM101.92-0.72Q101.56-0.18 100.91-0.4L100.91-0.4Q99.97-0.68 100.44-1.48L100.44-1.48Q100.8-2.09 101.45-3.38L101.45-3.38Q101.74-4.07 102.6-3.85L102.6-3.85Q103.57-3.53 103.1-2.63L103.1-2.63Q103.03-2.48 102.85-2.18 102.67-1.87 102.56-1.73L102.56-1.73Q102.35-1.37 101.92-0.72L101.92-0.72ZM78.66-0.65Q77.72-0.32 77.47-1.26L77.47-1.26Q77.47-1.3 77.44-1.4L77.44-1.4Q77.29-1.76 77.22-1.94L77.22-1.94Q77.08-2.34 76.9-2.7L76.9-2.7Q76.43-3.6 77.4-3.85L77.4-3.85Q78.08-4 78.44-3.42L78.44-3.42Q78.88-2.56 79.24-1.66L79.24-1.66Q79.49-0.9 78.66-0.65L78.66-0.65ZM78.37-9.68L78.37-9.68 86.83-9.68Q84.38-11.59 82.4-12.74L82.4-12.74Q80.21-10.84 78.37-9.68ZM93.71-9.68L93.71-9.68 100.66-9.68Q101.45-9.68 100.73-10.12L100.73-10.12Q98.89-11.34 97.42-12.78L97.42-12.78Q95.98-11.2 93.71-9.68ZM102.67-14.72L77.51-14.72Q76.57-14.72 76.57-15.66 76.57-16.6 77.51-16.6L77.51-16.6 83.41-16.6Q83.16-17.32 82.8-17.96L82.8-17.96Q82.51-18.5 82.67-18.9 82.84-19.3 83.38-19.44L83.38-19.44 83.48-19.48 79.92-19.48Q79.02-19.48 79.02-20.38 79.02-21.28 79.92-21.28L79.92-21.28 88.7-21.28 88.7-23.04 84.49-23.04Q83.38-23.04 83.38-24.16L83.38-24.16 83.38-24.26Q80.75-23 76.9-21.67L76.9-21.67Q75.89-21.35 75.38-22.18L75.38-22.18Q74.7-23.33 76.25-23.8L76.25-23.8Q79.74-24.88 82.84-26.39L82.84-26.39Q86-27.9 88.02-29.48L88.02-29.48Q88.67-29.99 89.71-29.99L89.71-29.99 89.93-29.99Q90.83-29.99 91.58-29.48L91.58-29.48Q96.62-26.06 103.9-24.08L103.9-24.08Q105.52-23.69 104.65-22.43L104.65-22.43Q104.08-21.6 103.18-21.89L103.18-21.89Q99.79-22.9 96.73-24.3L96.73-24.3 96.73-23.54Q96.73-23.04 96.23-23.04L96.23-23.04 91.19-23.04 91.19-21.28 99.94-21.28Q100.84-21.28 100.84-20.38 100.84-19.48 99.94-19.48L99.94-19.48 97.63-19.48 97.96-19.4Q98.03-19.37 97.99-19.26L97.99-19.26Q96.95-17.6 96.23-16.6L96.23-16.6 102.67-16.6Q103.61-16.6 103.61-15.66 103.61-14.72 102.67-14.72L102.67-14.72ZM84.6-16.63L84.49-16.6 88.7-16.6 88.7-19.48 84.28-19.48Q84.89-18.54 85.25-17.75L85.25-17.75Q85.39-17.39 85.21-17.08 85.03-16.78 84.6-16.63L84.6-16.63ZM91.19-19.48L91.19-16.6 94.5-16.6 94.21-16.67Q94.14-16.7 94.18-16.74L94.18-16.74Q94.9-17.89 95.62-19.48L95.62-19.48 91.19-19.48ZM84.42-24.77L84.42-24.77 95.72-24.77Q92.3-26.39 89.89-28.15L89.89-28.15Q87.95-26.57 84.42-24.77ZM140.72 2.02L111.2 2.02Q109.98 2.02 109.98 0.79 109.98-0.43 111.2-0.43L111.2-0.43 114.37-0.43 114.37-6.98Q114.37-7.92 114.95-8.5 115.52-9.07 116.46-9.07L116.46-9.07 135.76-9.07Q136.69-9.07 137.27-8.5 137.84-7.92 137.84-6.98L137.84-6.98 137.84-0.43 140.72-0.43Q141.95-0.43 141.95 0.79 141.95 2.02 140.72 2.02L140.72 2.02ZM116.89-6.12L116.89-0.43 121.32-0.43 121.32-6.88 117.65-6.88Q116.89-6.88 116.89-6.12L116.89-6.12ZM123.77-6.88L123.77-0.43 128.23-0.43 128.23-6.88 123.77-6.88ZM130.72-6.88L130.72-0.43 135.22-0.43 135.22-6.12Q135.22-6.88 134.46-6.88L134.46-6.88 130.72-6.88ZM112.93-10.01Q112.03-8.75 110.95-9.54L110.95-9.54Q109.87-10.37 110.88-11.81L110.88-11.81Q113.15-15.62 113.15-21.89L113.15-21.89 113.15-24.16Q113.15-25.09 113.71-25.63 114.26-26.17 115.16-26.17L115.16-26.17 126.4-26.17Q126.14-27.29 126.04-28.76L126.04-28.76Q125.93-30.1 127.26-30.1L127.26-30.1Q128.52-30.1 128.63-28.84L128.63-28.84Q128.74-27.32 128.99-26.17L128.99-26.17 134.71-26.17Q133.34-27.54 132.34-28.3L132.34-28.3Q131.26-29.05 132.41-29.77L132.41-29.77Q133.06-30.2 133.7-29.77L133.7-29.77Q134.86-28.98 136.12-27.9L136.12-27.9Q136.48-27.54 136.42-27.05 136.37-26.57 135.83-26.24L135.83-26.24 135.72-26.17 140.11-26.17Q141.26-26.17 141.26-25.02L141.26-25.02Q141.26-23.83 140.11-23.83L140.11-23.83 129.46-23.83Q130.43-20.3 132.08-17.32L132.08-17.32Q134.35-19.37 135.97-22L135.97-22Q136.51-22.9 137.56-22.57L137.56-22.57Q138.89-22.14 138.2-20.95L138.2-20.95Q136.3-17.93 133.45-15.34L133.45-15.34Q135.76-12.35 138.24-12.35L138.24-12.35Q139.03-12.35 139.39-13.82L139.39-13.82Q139.54-14.9 139.9-15.48L139.9-15.48Q140.36-16.24 141.05-15.84L141.05-15.84Q141.48-15.62 141.62-14.83L141.62-14.83Q141.73-14.18 141.62-13.57L141.62-13.57Q141.26-11.41 140.44-10.58L140.44-10.58Q139.64-9.79 138.1-9.79L138.1-9.79Q134.53-9.79 131.44-13.64L131.44-13.64Q129.35-12.06 127.12-10.8L127.12-10.8Q126.04-10.22 125.32-11.05L125.32-11.05Q124.24-12.2 125.82-12.92L125.82-12.92Q128.16-14.18 130.07-15.62L130.07-15.62Q128.02-18.94 126.83-23.83L126.83-23.83 116.5-23.83Q115.74-23.83 115.74-23.08L115.74-23.08 115.74-21.85Q115.74-21.06 115.7-20.63L115.7-20.63 122.33-20.63Q123.37-20.63 123.84-19.87L123.84-19.87Q124.38-18.97 124.24-16.99L124.24-16.99Q123.95-13.1 123.23-12.35L123.23-12.35Q122.62-11.63 121.28-11.52L121.28-11.52Q120.46-11.45 118.76-11.52L118.76-11.52Q117.61-11.59 117.36-12.38L117.36-12.38Q117-13.68 118.8-13.54L118.8-13.54Q119.41-13.5 120.17-13.5L120.17-13.5Q120.89-13.5 121.14-13.79L121.14-13.79Q121.54-14.22 121.79-17.14L121.79-17.14Q121.86-18.47 121.1-18.47L121.1-18.47 115.56-18.47Q114.95-13.28 112.93-10.01L112.93-10.01ZM165.2 2.7L165.2 2.7Q163.76 2.7 163.48 1.8L163.48 1.8Q163.26 1.08 163.73 0.76L163.73 0.76Q164.16 0.43 165.02 0.47L165.02 0.47Q165.85 0.47 166.68 0.47L166.68 0.47Q167.29 0.43 167.29-0.07L167.29-0.07 167.29-9.68 163.01-9.68Q162.07-9.68 161.5-10.26 160.92-10.84 160.92-11.77L160.92-11.77 160.92-19.94Q160.92-20.88 161.5-21.46 162.07-22.03 163.01-22.03L163.01-22.03 166.61-22.03Q167.08-24.01 167.36-25.92L167.36-25.92 159.62-25.92Q158.87-25.92 158.87-25.16L158.87-25.16 158.87-18.58Q158.87-5.47 154.84 1.4L154.84 1.4Q154.08 2.59 153 1.91L153 1.91Q151.88 1.19 152.71-0.11L152.71-0.11Q154.87-3.89 155.7-9.4L155.7-9.4Q156.28-13.18 156.28-18.58L156.28-18.58 156.28-26.28Q156.28-27.22 156.85-27.79 157.43-28.37 158.36-28.37L158.36-28.37 176.72-28.37Q177.95-28.37 177.95-27.14 177.95-25.92 176.72-25.92L176.72-25.92 170.1-25.92 170.28-25.88Q170.21-25.67 170.1-25.24L170.1-25.24Q169.45-23.04 169.16-22.03L169.16-22.03 174.49-22.03Q175.43-22.03 176-21.46 176.58-20.88 176.58-19.94L176.58-19.94 176.58-11.77Q176.58-10.84 176-10.26 175.43-9.68 174.49-9.68L174.49-9.68 169.81-9.68 169.81-0.04Q169.81 1.01 169.6 1.51L169.6 1.51Q169.31 2.09 168.59 2.34L168.59 2.34Q167.76 2.7 165.2 2.7ZM149.4 1.01Q148.79 2.27 147.53 1.44L147.53 1.44Q146.38 0.72 146.95-0.32L146.95-0.32Q148.32-2.92 149.08-4.57L149.08-4.57Q150.19-6.91 151.27-9.47L151.27-9.47Q151.81-10.84 153.04-9.94L153.04-9.94Q153.94-9.32 153.54-8.35L153.54-8.35Q151.7-3.85 149.4 1.01L149.4 1.01ZM160.67-0.18Q159.95 0.68 159.01 0.07L159.01 0.07Q157.82-0.68 158.8-1.76L158.8-1.76Q160.45-3.78 161.75-6.62L161.75-6.62Q162.18-7.67 163.26-7.42L163.26-7.42Q164.52-7.09 164.05-5.87L164.05-5.87Q163.44-4.39 162.47-2.84L162.47-2.84Q161.6-1.4 160.67-0.18L160.67-0.18ZM177.52-0.36Q176.26 0.25 175.79-0.86L175.79-0.86Q175.36-1.87 174.56-3.28 173.77-4.68 172.98-5.9L172.98-5.9Q172.15-7.06 173.48-7.6L173.48-7.6Q174.46-8.03 175.07-7.16L175.07-7.16Q177.12-4.25 178.24-1.76L178.24-1.76Q178.45-1.22 178.27-0.9L178.27-0.9Q178.09-0.65 177.52-0.36L177.52-0.36ZM164.05-11.74L164.05-11.74 173.38-11.74Q174.13-11.74 174.13-12.49L174.13-12.49 174.13-14.9 163.3-14.9 163.3-12.49Q163.3-11.74 164.05-11.74ZM152.46-15.62Q151.63-14.44 150.66-15.26L150.66-15.26Q150.08-15.73 149-16.42L149-16.42Q147.78-17.21 146.88-17.64L146.88-17.64Q145.58-18.25 146.48-19.37L146.48-19.37Q147.13-20.2 148.07-19.76L148.07-19.76Q150.84-18.43 152.39-17.21L152.39-17.21Q152.82-16.85 152.82-16.49L152.82-16.49Q152.82-16.13 152.46-15.62L152.46-15.62ZM163.3-19.22L163.3-16.85 174.13-16.85 174.13-19.22Q174.13-19.98 173.38-19.98L173.38-19.98 164.05-19.98Q163.3-19.98 163.3-19.22L163.3-19.22ZM154.12-24.95Q153.22-23.8 152.32-24.7L152.32-24.7Q151.49-25.34 150.66-25.88L150.66-25.88Q149.58-26.64 148.57-27.22L148.57-27.22Q147.38-27.83 148.25-28.94L148.25-28.94Q148.9-29.77 149.8-29.3L149.8-29.3Q152.53-27.86 154.12-26.53L154.12-26.53Q154.84-25.88 154.12-24.95L154.12-24.95Z" transform="translate(-2.4100000858306885, 30.100000381469727)"></path></g> <!----> <!----> <!----> <!----> <!----> <!----> <!----></g></g> <g data-gra="path-slogan" fill-rule="" class="tp-slogan iconsvg-slogansvg" fill="#333" transform="translate(5,38.84000015258789)"><rect x="0" height="1" y="3.9750003814697266" width="8.466537475585938"></rect> <rect height="1" y="3.9750003814697266" width="8.466537475585938" x="157.47653198242188"></rect> <g transform="translate(11.466537475585938,0)"><g transform="scale(1)"><path d="M3.09-7.59L0.19-7.59L0.19-8.58L7.13-8.58L7.13-7.59L4.22-7.59L4.22 0L3.09 0L3.09-7.59ZM8.34-8.58L9.52-8.58L9.52 0L8.34 0L8.34-8.58ZM17.16 0L16.31-2.48L12.84-2.48L11.95 0L10.78 0L14.02-8.58L15.33-8.58L18.42 0L17.16 0ZM14.58-7.31L13.22-3.52L15.89-3.52L14.63-7.31L14.58-7.31ZM20.86-8.58L25.17-1.64L25.17-8.58L26.30-8.58L26.30 0L24.98 0L20.63-6.94L20.58-6.94L20.58 0L19.45 0L19.45-8.58L20.86-8.58ZM27.38-1.92L27.38-2.77L28.45-2.77L28.45-2.16Q28.45-0.75 29.77-0.75L29.77-0.75Q31.13-0.75 31.13-2.25L31.13-2.25L31.13-8.58L32.30-8.58L32.30-2.30Q32.25 0.09 29.81 0.14L29.81 0.14Q27.52 0.09 27.38-1.92L27.38-1.92ZM34.27-8.58L35.44-8.58L35.44 0L34.27 0L34.27-8.58ZM38.81-8.58L43.13-1.64L43.13-8.58L44.25-8.58L44.25 0L42.94 0L38.58-6.94L38.53-6.94L38.53 0L37.41 0L37.41-8.58L38.81-8.58ZM56.11-8.58L53.20-4.41L56.25 0L54.80 0L52.45-3.52L50.11 0L48.70 0L51.80-4.41L48.89-8.58L50.34-8.58L52.50-5.30L54.70-8.58L56.11-8.58ZM57.52-8.58L58.69-8.58L58.69 0L57.52 0L57.52-8.58ZM62.06-8.58L66.38-1.64L66.38-8.58L67.50-8.58L67.50 0L66.19 0L61.83-6.94L61.78-6.94L61.78 0L60.66 0L60.66-8.58L62.06-8.58ZM75.56-6.09L75.56-6.09L74.48-6.09Q74.39-7.73 72.33-7.83L72.33-7.83Q70.41-7.78 70.41-6.33L70.41-6.33Q70.41-5.39 71.44-5.25L71.44-5.25L73.88-4.69Q75.80-4.22 75.80-2.34L75.80-2.34Q75.75 0.05 72.42 0.14L72.42 0.14Q70.59 0.14 69.84-0.61L69.84-0.61Q68.91-1.31 68.95-2.77L68.95-2.77L70.08-2.77Q70.13-0.80 72.42-0.75L72.42-0.75Q74.67-0.80 74.72-2.20L74.72-2.20Q74.91-3.38 72.84-3.75L72.84-3.75L71.06-4.13Q69.23-4.64 69.23-6.19L69.23-6.19Q69.38-8.72 72.23-8.81L72.23-8.81Q75.47-8.81 75.56-6.09ZM78.42-5.06L82.92-5.06L82.92-8.58L84.09-8.58L84.09 0L82.92 0L82.92-3.98L78.42-3.98L78.42 0L77.25 0L77.25-8.58L78.42-8.58L78.42-5.06ZM87.19-1.03L92.34-1.03L92.34 0L86.02 0L86.02-8.58L92.25-8.58L92.25-7.59L87.19-7.59L87.19-4.92L91.88-4.92L91.88-3.89L87.19-3.89L87.19-1.03ZM95.25-8.58L99.56-1.64L99.56-8.58L100.69-8.58L100.69 0L99.38 0L95.02-6.94L94.97-6.94L94.97 0L93.84 0L93.84-8.58L95.25-8.58ZM108.89-3.61L106.27-3.61L106.27-4.59L110.02-4.59L110.02 0L109.27 0L108.98-1.08Q108 0.09 106.17 0.14L106.17 0.14Q104.44 0.14 103.50-0.75L103.50-0.75Q102.09-2.06 102.14-4.36L102.14-4.36Q102.47-8.63 106.22-8.81L106.22-8.81Q109.41-8.63 109.88-6L109.88-6L108.75-6Q108.28-7.78 106.17-7.83L106.17-7.83Q103.50-7.64 103.36-4.31L103.36-4.31Q103.36-0.75 106.22-0.75L106.22-0.75Q107.25-0.75 108-1.31L108-1.31Q108.94-2.06 108.89-3.61L108.89-3.61ZM118.73-8.58L115.50-3.47L115.50 0L114.33 0L114.33-3.47L111.09-8.58L112.45-8.58L114.89-4.45L117.38-8.58L118.73-8.58ZM125.44-3.19L125.44-8.58L126.61-8.58L126.61-3.05Q126.47 0.05 123.09 0.14L123.09 0.14Q119.95 0.05 119.81-2.86L119.81-2.86L119.81-8.58L120.98-8.58L120.98-3.19Q121.03-0.84 123.14-0.80L123.14-0.80Q125.44-0.84 125.44-3.19L125.44-3.19ZM134.06 0L133.22-2.48L129.75-2.48L128.86 0L127.69 0L130.92-8.58L132.23-8.58L135.33 0L134.06 0ZM131.48-7.31L130.13-3.52L132.80-3.52L131.53-7.31L131.48-7.31ZM137.77-8.58L142.08-1.64L142.08-8.58L143.20-8.58L143.20 0L141.89 0L137.53-6.94L137.48-6.94L137.48 0L136.36 0L136.36-8.58L137.77-8.58Z" transform="translate(-0.1875, 8.8125)"></path></g></g></g></g></g><defs v-gra="od"></defs></svg>